<svg xmlns="http://www.w3.org/2000/svg" viewBox="0 0 180 180" fill="none">
  <g fill="currentColor">
    <rect x="20" y="56" width="6" height="32" />
    <rect x="26" y="44" width="6" height="12" />
    <rect x="32" y="32" width="12" height="12" />
    <rect x="44" y="20" width="24" height="6" />
    <rect x="68" y="14" width="44" height="6" />
    <rect x="112" y="20" width="24" height="6" />
    <rect x="136" y="32" width="12" height="12" />
    <rect x="148" y="44" width="6" height="12" />
    <rect x="154" y="56" width="6" height="32" />
    <rect x="148" y="88" width="6" height="18" />
    <rect x="136" y="106" width="12" height="12" />
    <rect x="112" y="124" width="24" height="6" />
    <rect x="68" y="130" width="44" height="6" />
    <rect x="44" y="124" width="24" height="6" />
    <rect x="32" y="112" width="12" height="12" />
    <rect x="26" y="100" width="6" height="12" />
  </g>
  <text
    x="90"
    y="94"
    fill="currentColor"
    font-family="'Courier New', monospace"
    font-size="26"
    text-anchor="middle"
    letter-spacing="-1.5"
  >
    2 Bits
  </text>
</svg>
